<svg xmlns="http://www.w3.org/2000/svg" xmlns:xlink="http://www.w3.org/1999/xlink" xml:space="preserve" version="1.1" style="shape-rendering:geometricPrecision;text-rendering:geometricPrecision;image-rendering:optimizeQuality;" viewBox="0 0 327 333.75" x="0px" y="0px" fill-rule="evenodd" clip-rule="evenodd"><defs><style type="text/css">
   
    .fil0 {fill:black}
   
  </style></defs><g><path class="fil0" d="M285 94l-154 -19c-10,46 -21,92 -32,137 -7,30 -37,40 -64,34 -57,-14 -40,-87 17,-74 17,4 25,6 29,-11l34 -147c2,-9 11,-15 20,-14l176 21c11,2 18,12 16,23 -15,62 -30,125 -44,188 -7,29 -38,39 -65,33 -56,-13 -39,-87 18,-73 16,4 24,6 28,-11l21 -87z"/></g></svg>